<svg width="73" height="29" viewBox="0 0 73 29" fill="none" xmlns="http://www.w3.org/2000/svg">
<g clip-path="url(#clip0_0_202)">
<path d="M67.7883 25.9167V26.4928H66.0671V23.4387H66.6536V25.9167H67.7883Z" fill="white"/>
<path d="M70.1306 24.3111V26.4926H69.5823V26.2353C69.4297 26.4311 69.1998 26.554 68.8892 26.554C68.3236 26.554 67.856 26.0527 67.856 25.4027C67.856 24.7528 68.3236 24.2515 68.8892 24.2515C69.1998 24.2515 69.4288 24.3734 69.5823 24.5702V24.3129H70.1306V24.3111ZM69.5823 25.4018C69.5823 25.035 69.3316 24.7866 68.9916 24.7866C68.6515 24.7866 68.4051 25.035 68.4051 25.4018C68.4051 25.7687 68.6558 26.0171 68.9916 26.0171C69.3273 26.0171 69.5823 25.7687 69.5823 25.4018Z" fill="white"/>
<path d="M72.8173 25.4019C72.8173 26.0519 72.3497 26.5532 71.7798 26.5532C71.4692 26.5532 71.2445 26.4357 71.0909 26.2345V26.4918H70.5427V23.4377H71.0909V24.5676C71.2436 24.3673 71.4692 24.2489 71.7798 24.2489C72.3497 24.2489 72.8173 24.7502 72.8173 25.4002V25.4019ZM72.269 25.4019C72.269 25.0351 72.0183 24.7867 71.6783 24.7867C71.3382 24.7867 71.0918 25.0351 71.0918 25.4019C71.0918 25.7688 71.3425 26.0172 71.6783 26.0172C72.014 26.0172 72.269 25.7688 72.269 25.4019Z" fill="white"/>
<path d="M65.7568 2.15941C65.5035 2.15763 64.9925 2.81741 64.8337 2.97144C64.1501 3.63211 63.4847 4.31326 62.8254 4.99975C61.7609 5.85453 60.6453 6.64786 59.5522 7.4599C57.5205 8.96822 55.4818 10.4667 53.4301 11.9466C53.4353 11.9314 53.4396 11.9163 53.4448 11.9012C53.4977 11.7391 52.6189 10.749 52.5625 10.7926C51.9518 11.2761 51.3289 11.7453 50.6947 12.1977C50.5759 12.2831 50.3286 12.4853 50.038 12.7061C50.3052 12.2965 50.6141 11.9181 50.9671 11.5833C51.0374 11.5165 51.1094 11.4551 51.1823 11.3963C51.5536 11.1541 51.9223 10.9084 52.2867 10.6546C52.3274 10.6261 51.6143 9.55855 51.4885 9.63779C51.2248 9.80429 50.9741 9.97258 50.7346 10.148C49.717 10.8265 48.591 11.3767 47.5395 11.9964C46.4586 12.634 45.362 13.2884 44.19 13.7371C43.9028 13.8476 43.4673 14.0319 43.0639 14.0791C43.09 13.9856 43.1238 13.8947 43.1585 13.8066C43.3025 13.4496 43.5341 13.1299 43.7762 12.837C44.0876 12.4612 44.4416 12.1122 44.8198 11.8068C44.8667 11.7685 44.072 10.6324 43.9375 10.6982C42.5764 11.3669 41.2725 12.1843 40.0189 13.0702C40.0875 12.9251 40.156 12.7809 40.2245 12.6357C40.3 12.4772 39.3795 11.4943 39.3422 11.5272C38.1832 12.5609 36.8845 13.8084 35.4679 14.5171C35.6431 14.2411 35.8582 13.9927 36.0864 13.7612C36.6598 13.1789 37.3417 12.6811 38.0557 12.2671C38.3099 12.1318 38.5641 11.9973 38.8183 11.862C38.8165 11.862 38.1112 10.6689 37.936 10.7534C37.6445 10.895 37.3487 11.0508 37.0554 11.2218C35.7125 11.9359 34.3696 12.65 33.0266 13.3641C32.5425 13.6214 32.0585 13.8778 31.5744 14.1343C31.8841 13.8084 32.1912 13.4807 32.5044 13.1584C32.5903 13.0702 31.6846 11.9982 31.6221 12.0499C31.2135 12.3935 30.4726 13.2118 29.9356 13.251C29.632 13.2733 28.9284 12.4514 28.6187 12.1763C28.5962 12.146 28.5675 12.1282 28.5328 12.122C27.1422 13.1646 25.7507 14.2073 24.36 15.2499C24.3661 15.2375 24.3722 15.225 24.3782 15.2125C24.4485 15.0674 23.5541 14.0604 23.4959 14.104C23.3493 14.2144 23.2079 14.3301 23.0665 14.4459C22.9216 14.2082 22.3942 13.3908 22.2224 13.4033C21.1224 13.4834 19.9903 13.974 18.9865 14.396C15.3759 15.9141 12.0437 18.1437 8.8963 20.4827C6.29457 22.4158 3.80043 24.4948 1.37395 26.654C2.10267 24.3916 3.2721 22.2742 4.52481 20.2815C7.05453 16.2578 10.1985 12.7319 13.4335 9.29054C15.8617 6.70663 18.492 4.14231 21.5379 2.33125C21.8381 2.15318 22.2372 1.89763 22.6692 1.66435C22.3343 2.19324 20.9055 5.12619 19.8142 7.05655C19.7005 7.25778 20.3928 7.75996 20.3702 7.79468C21.0955 6.64964 23.5237 2.81652 24.0121 2.04544C24.1093 1.8914 24.4528 1.12745 24.6177 1.09183C24.6185 1.05621 24.6073 1.02327 24.583 0.994778C24.3383 0.563829 24.0338 0.0251434 23.5419 0.000212516C23.109 -0.0220472 22.5486 0.273562 22.1643 0.439175C19.5973 1.54949 17.3504 3.49855 15.3177 5.40666C11.5648 8.92993 8.05392 12.7577 5.08871 16.9978C3.37621 19.4472 1.76 22.0578 0.715492 24.8911C0.378891 25.8055 -0.0279805 26.89 0.00151548 27.889C0.00672066 28.0546 0.817861 29.0572 0.883793 28.9975C5.3134 24.965 9.9677 21.0962 15.0792 18.0012C16.3267 17.2462 17.6228 16.5045 18.964 15.8821C18.8373 16.0406 18.7185 16.2044 18.61 16.3754C18.0999 17.183 18.2899 17.6166 18.8885 18.2888C18.9839 18.3957 19.082 18.474 19.1826 18.5328L19.2034 18.5595C19.2008 18.5533 19.1991 18.5461 19.1965 18.5399C19.8272 18.8907 20.5403 18.3654 21.1701 17.9264C21.5293 17.6762 21.8667 17.3975 22.1973 17.1091C22.3985 17.4429 22.9659 18.0644 23.0127 18.0297C24.7721 16.711 26.5323 15.3924 28.2917 14.0728C28.5962 13.844 28.9406 13.478 29.2884 13.3258C29.3223 13.3106 29.4316 13.2323 29.3865 13.2056C29.54 13.2643 29.8419 13.6054 29.9903 13.7612C29.9165 13.8395 29.8419 13.9179 29.7691 13.9963C29.4906 14.2954 28.06 15.4912 28.1537 15.9515C28.2049 16.2044 28.7601 16.947 29.0048 17.02C29.2945 17.1064 30.0909 16.4965 30.3329 16.3682C31.4659 15.769 32.5981 15.1671 33.7302 14.5661C33.889 14.4815 34.0477 14.3969 34.2073 14.3123C34.1856 14.4815 34.1978 14.6507 34.2594 14.8145C34.3444 15.0416 34.5977 15.4235 34.8606 15.6844C34.9664 15.8367 35.035 15.8946 35.0645 15.8572C35.1217 15.8972 35.1781 15.9284 35.2302 15.9453C36.0101 16.2017 37.3018 15.0211 37.9117 14.5403C37.8848 14.5964 37.8579 14.6534 37.831 14.7095C37.7599 14.859 38.6604 15.8589 38.7133 15.818C39.8116 14.9534 40.9506 14.1102 42.1322 13.3454C42.1617 14.0488 42.9451 15.1164 43.6521 15.1787C44.3357 15.2383 45.1269 14.8386 45.7273 14.5634C46.633 14.1485 47.5031 13.6481 48.3628 13.1379C48.3429 13.2483 48.3394 13.3534 48.3585 13.4478C48.4183 13.7354 48.9571 14.421 49.2043 14.526C49.8064 14.7816 50.8891 13.787 51.3506 13.4629C51.5024 13.3561 51.6508 13.2448 51.8017 13.1352C51.8156 13.3436 52.618 14.2669 52.684 14.2206C54.3687 13.0177 56.0457 11.8023 57.7148 10.5763C57.6862 10.6101 57.6567 10.643 57.628 10.6769C57.2767 11.0989 56.4768 11.8095 56.3476 12.3846C56.338 12.4265 56.338 12.4746 56.3441 12.5271C56.3311 12.5307 56.3215 12.5333 56.3189 12.5316C56.3293 12.5449 56.3406 12.5583 56.351 12.5725C56.4265 12.9759 56.8724 13.5867 57.1752 13.6321C57.432 13.6704 62.7621 10.8051 63.9124 10.3118C63.8803 10.3261 63.5984 9.498 63.3936 9.58526C63.3936 9.58526 59.0733 11.3313 58.7836 11.456C59.0169 11.1844 59.2529 10.9155 59.488 10.6484C60.8735 9.07506 62.3127 7.54894 63.7684 6.04329C64.616 5.36481 65.4323 4.64805 66.1793 3.84581C66.3025 3.71314 66.6486 3.44335 66.6477 3.23856C66.6477 3.03555 65.9659 2.15852 65.7542 2.15763L65.7568 2.15941ZM21.1718 16.1189C20.9532 16.3122 20.2401 16.9515 19.5695 17.3379C19.7725 17.0672 20.0024 16.8268 20.1482 16.6737C20.9038 15.8794 21.8034 15.2508 22.7455 14.7139C22.212 15.1707 21.7002 15.6515 21.1718 16.1189Z" fill="white"/>
<path d="M60.1755 21.5436H58.9921L58.8143 22.0921H58.1827L59.222 19.0452H59.9473L60.9909 22.0921H60.355L60.1772 21.5436H60.1755ZM59.9933 20.9818L59.5864 19.737L59.1795 20.9818H59.9941H59.9933Z" fill="white"/>
<path d="M63.3518 19.9152V21.9871C63.3518 22.7012 62.8044 23.0227 62.2448 23.0227C61.7911 23.0227 61.4259 22.8446 61.2394 22.492L61.7061 22.2177C61.7954 22.3878 61.9351 22.5223 62.2613 22.5223C62.6048 22.5223 62.8165 22.3308 62.8165 21.9871V21.7521C62.6682 21.9569 62.4392 22.0833 62.1381 22.0833C61.5361 22.0833 61.0823 21.5829 61.0823 20.9685C61.0823 20.3542 61.5361 19.8538 62.1381 19.8538C62.4392 19.8538 62.6682 19.9802 62.8165 20.185V19.9152H63.3509H63.3518ZM62.8174 20.9685C62.8174 20.6248 62.5675 20.3764 62.224 20.3764C61.8805 20.3764 61.6306 20.6248 61.6306 20.9685C61.6306 21.3122 61.8805 21.5651 62.224 21.5651C62.5675 21.5651 62.8174 21.3167 62.8174 20.9685Z" fill="white"/>
<path d="M64.9079 21.6434C65.1195 21.6434 65.2896 21.5516 65.3833 21.4252L65.824 21.6861C65.6244 21.9817 65.3069 22.1518 64.8992 22.1518C64.1869 22.1518 63.7367 21.6514 63.7367 21.0023C63.7367 20.3532 64.1904 19.8528 64.8567 19.8528C65.4848 19.8528 65.9298 20.3621 65.9298 21.0023C65.9298 21.0851 65.9211 21.159 65.909 21.2329H64.3101C64.3865 21.5205 64.6198 21.6425 64.9079 21.6425V21.6434ZM65.3833 20.7984C65.3156 20.485 65.0866 20.3585 64.8575 20.3585C64.5652 20.3585 64.3657 20.5197 64.3023 20.7984H65.3841H65.3833Z" fill="white"/>
<path d="M68.2931 20.7556V22.092H67.7457V20.825C67.7457 20.5294 67.5722 20.3763 67.3258 20.3763C67.0586 20.3763 66.8591 20.5374 66.8591 20.9158V22.0912H66.3117V19.915H66.8591V20.159C66.9866 19.9631 67.207 19.8545 67.4907 19.8545C67.9401 19.8545 68.2923 20.1768 68.2923 20.7556H68.2931Z" fill="white"/>
<path d="M68.6486 21.0033C68.6486 20.355 69.124 19.8538 69.7685 19.8538C70.1841 19.8538 70.545 20.0799 70.7185 20.4156L70.2474 20.6987C70.1624 20.5207 69.9802 20.4067 69.7642 20.4067C69.438 20.4067 69.196 20.6551 69.196 21.0033C69.196 21.3514 69.438 21.5954 69.7642 21.5954C69.9846 21.5954 70.1667 21.4867 70.2518 21.3078L70.7272 21.5865C70.545 21.9257 70.1841 22.1527 69.7685 22.1527C69.124 22.1527 68.6486 21.6523 68.6486 21.0033Z" fill="white"/>
<path d="M73.0004 19.915L72.2283 22.0912C72.008 22.718 71.6471 22.9922 71.1084 22.962V22.4393C71.4094 22.4437 71.5621 22.3129 71.6636 22.0217L70.7943 19.915H71.392L71.9438 21.378L72.4149 19.915H73.0004Z" fill="white"/>
</g>
<defs>
<clipPath id="clip0_0_202">
<rect width="73" height="29" fill="white"/>
</clipPath>
</defs>
</svg>
