<svg width="142" height="70" viewBox="0 0 142 70" fill="none" xmlns="http://www.w3.org/2000/svg">
<g clip-path="url(#clip0_0_149)">
<path d="M7.15191 62.485L5.99837 67.545L4.61413 62.485H3.69131L2.19171 67.545L1.15353 62.485H0L1.7303 69.385H2.65313L4.03737 64.44H4.15272L5.53696 69.385H6.57514L8.30544 62.485H7.15191Z" fill="white"/>
<path d="M12.6888 62.485V69.385H17.4183V68.465H13.9577V66.28H16.9569V65.36H13.9577V63.405H17.4183V62.485H12.6888Z" fill="white"/>
<path d="M31.8375 62.485L29.6458 65.475H29.0691V62.485H27.9155V69.385H29.0691V66.395H29.7612L32.0682 69.385H33.4525L30.684 65.82L33.2218 62.485H31.8375Z" fill="white"/>
<path d="M41.9887 62.485V67.545H41.8733L38.8741 62.485H37.7206V69.385H38.8741V64.325L41.9887 69.385H43.1422V62.485H41.9887Z" fill="white"/>
<path d="M53.524 66.625C53.524 67.545 53.2932 68.235 52.7165 68.695C52.1397 69.27 51.4476 69.5 50.6401 69.5C49.8326 69.5 49.1405 69.27 48.5638 68.695C47.987 68.12 47.7563 67.43 47.7563 66.625V65.36C47.7563 64.44 47.987 63.865 48.5638 63.29C49.1405 62.715 49.7173 62.485 50.6401 62.485C51.5629 62.485 52.1397 62.715 52.7165 63.29C53.2932 63.865 53.524 64.555 53.524 65.36V66.625ZM52.3704 65.36C52.3704 64.785 52.1397 64.325 51.909 63.98C51.6783 63.635 51.2169 63.405 50.6401 63.405C50.0634 63.405 49.7173 63.635 49.3712 63.98C49.1405 64.325 48.9098 64.9 48.9098 65.36V66.625C48.9098 67.2 49.1405 67.66 49.3712 68.005C49.6019 68.35 50.0634 68.58 50.6401 68.58C51.2169 68.58 51.5629 68.35 51.909 68.005C52.2551 67.66 52.3704 67.085 52.3704 66.625V65.36Z" fill="white"/>
<path d="M59.9838 67.545L61.368 62.485H62.2908L63.6751 67.545L64.8286 62.485H65.9821L64.3672 69.385H63.2137L61.8294 64.44L60.4452 69.385H59.407L57.7921 62.485H58.9456L59.9838 67.545Z" fill="white"/>
<path d="M81.2088 63.405H79.0171V69.385H77.8635V63.405H75.7872V62.485H81.2088V63.405Z" fill="white"/>
<path d="M91.0138 69.385H89.8603V66.395H86.7458V69.385H85.5922V62.485H86.7458V65.475H89.8603V62.485H91.0138V69.385Z" fill="white"/>
<path d="M100.242 66.28H97.2429V68.465H100.703V69.385H96.0894V62.485H100.703V63.405H97.2429V65.36H100.242V66.28Z" fill="white"/>
<path d="M112.816 67.545L114.315 62.485H115.123L116.622 67.545L117.776 62.485H118.814L117.199 69.385H116.161L114.777 64.44L113.277 69.385H112.239L110.624 62.485H111.777L112.816 67.545Z" fill="white"/>
<path d="M126.889 67.775H124.12L123.543 69.385H122.39L124.928 62.485H125.966L128.504 69.385H127.35L126.889 67.775ZM124.466 66.855H126.543L125.62 63.98L124.466 66.855Z" fill="white"/>
<path d="M135.194 65.82L136.809 62.485H138.193L135.771 66.97V69.385H134.617V66.97L132.195 62.485H133.579L135.194 65.82Z" fill="white"/>
<path d="M88.3607 1.18994L81.6702 15.2199L83.2852 32.4699H75.5565L74.8644 19.0149L72.5573 32.4699H65.1747L70.5963 1.18994H78.0943L75.9026 13.3799L81.3242 1.18994H88.3607Z" fill="white"/>
<path d="M103.241 19.475C102.664 22.58 102.318 24.88 101.857 26.145C101.511 27.525 100.934 28.675 100.011 29.71C99.0885 30.745 97.935 31.665 96.7815 32.24C95.3972 32.815 94.013 33.16 92.398 33.16C90.8984 33.16 89.5142 32.93 88.3607 32.355C87.2071 31.78 86.3997 30.975 85.8229 29.825C85.2461 28.79 85.0154 27.525 85.1308 26.26C85.2461 24.88 85.5922 22.695 86.0536 19.59L86.9764 14.3C87.5532 11.195 87.8992 8.895 88.3607 7.63C88.8221 6.135 89.3988 4.985 90.3217 3.95C91.2445 2.915 92.398 1.995 93.5516 1.42C94.9358 0.845 96.32 0.5 97.935 0.5C99.4346 0.5 100.819 0.73 101.972 1.305C103.126 1.88 103.933 2.685 104.51 3.835C105.087 4.87 105.318 6.135 105.202 7.4C105.087 8.78 104.741 10.965 104.279 14.07L103.241 19.475ZM97.4736 9.125C97.7043 7.745 97.8196 6.71 97.7043 6.365C97.5889 5.905 97.3582 5.79 96.8968 5.79C96.5507 5.79 96.2047 6.02 95.974 6.365C95.7433 6.71 95.3972 7.745 95.1665 9.24L92.6287 23.845C92.2827 25.57 92.1673 26.72 92.2827 27.18C92.398 27.64 92.6287 27.755 93.0901 27.755C93.6669 27.755 94.013 27.525 94.1283 27.065C94.359 26.49 94.7051 25.34 94.9358 23.615L97.4736 9.125Z" fill="white"/>
<path d="M109.124 1.18994H116.622C118.929 1.18994 120.66 1.41994 121.813 1.76494C122.967 2.10994 123.774 3.02994 124.351 4.17994C124.928 5.32994 124.928 7.39994 124.466 10.0449C124.12 11.8849 123.659 13.1499 123.082 13.8399C122.505 14.5299 121.352 15.1049 119.737 15.5649C121.467 16.0249 122.39 16.7149 122.851 17.6349C123.313 18.5549 123.313 20.1649 122.967 22.1199L122.39 24.9949C122.044 27.0649 121.467 28.6749 120.89 29.7099C120.314 30.6299 119.506 31.4349 118.353 31.7799C117.314 32.1249 115.353 32.3549 112.354 32.3549H103.703L109.124 1.18994ZM115.584 6.47994L114.315 13.3799C114.661 13.3799 114.892 13.3799 115.007 13.3799C115.699 13.3799 116.276 13.1499 116.507 12.8049C116.738 12.3449 117.084 11.3099 117.43 9.46994C117.66 8.54994 117.66 7.74494 117.545 7.39994C117.43 7.05494 117.314 6.82494 116.968 6.70994C116.968 6.59494 116.392 6.47994 115.584 6.47994ZM113.623 18.3249L112.123 27.0649C113.162 27.0649 113.854 26.8349 114.2 26.4899C114.546 26.1449 114.777 25.3399 115.123 24.0749L115.699 21.1999C115.93 19.8199 115.93 19.1299 115.699 18.7849C115.353 18.6699 114.661 18.3249 113.623 18.3249Z" fill="white"/>
<path d="M142 1.18994L140.731 32.4699H133.118L133.695 26.9499H131.041L129.657 32.4699H121.929L131.272 1.18994H142ZM134.502 21.3149C134.733 17.7499 135.079 13.4949 135.656 8.20494C133.925 14.1849 132.656 18.5549 131.964 21.3149H134.502Z" fill="white"/>
<path d="M64.3672 36.84H72.2112L71.5191 40.865H68.4045L67.7124 44.66H70.7116L70.0195 48.455H67.0203L66.3282 52.825H69.7888L68.9813 56.85H60.7912L64.3672 36.84Z" fill="white"/>
<path d="M83.6312 36.84L80.4013 45.695L80.9781 56.85H76.5947C76.364 54.78 76.3639 52.48 76.3639 49.605C76.0179 50.87 75.6718 52.25 75.0951 53.63L74.0569 56.85H69.4427L73.1341 45.695L72.9034 36.84H77.5175C77.5175 37.415 77.5175 38.335 77.5175 39.6C77.5175 40.52 77.5175 41.44 77.5175 42.36L79.4785 36.84H83.6312Z" fill="white"/>
<path d="M85.1308 36.84H89.9756C91.3598 36.84 92.2827 36.955 92.8594 37.185C93.4362 37.415 94.013 37.76 94.2437 38.105C94.4744 38.565 94.7051 39.025 94.7051 39.6C94.7051 40.175 94.5897 41.095 94.4744 42.36L94.2437 44.2C94.013 45.465 93.6669 46.385 93.3209 47.075C92.9748 47.65 92.398 48.11 91.7059 48.455C91.0138 48.8 90.091 48.915 89.1681 48.915H87.8992L86.515 56.85H81.6702L85.1308 36.84ZM89.2835 40.29L88.3607 45.465C88.5914 45.465 88.5914 45.465 88.7067 45.465C89.1681 45.465 89.5142 45.35 89.6295 45.12C89.8602 44.89 89.9756 44.43 90.2063 43.625L90.437 41.9C90.5524 41.21 90.5524 40.75 90.3217 40.52C90.3217 40.405 89.8603 40.29 89.2835 40.29Z" fill="white"/>
<path d="M96.7815 36.84H100.127C102.318 36.84 103.818 36.955 104.625 37.07C105.433 37.3 106.01 37.76 106.356 38.45C106.702 39.255 106.702 40.52 106.471 42.13C106.24 43.74 105.894 44.66 105.433 45.235C104.972 45.81 104.164 46.155 103.126 46.155C104.049 46.385 104.625 46.73 104.856 47.19C105.087 47.65 105.202 47.995 105.202 48.34C105.202 48.685 105.087 49.72 104.741 51.215L103.818 56.505H99.4346L100.588 49.835C100.819 48.8 100.819 48.11 100.703 47.765C100.588 47.535 100.127 47.42 99.5499 47.42L97.935 56.39H93.0901L96.7815 36.84ZM100.934 40.29L100.127 44.66C100.703 44.66 101.05 44.545 101.28 44.43C101.511 44.2 101.742 43.74 101.857 42.82L102.088 41.785C102.203 41.21 102.203 40.75 101.972 40.52C101.857 40.405 101.511 40.29 100.934 40.29Z" fill="white"/>
<path d="M109.355 36.84H117.199L116.507 40.865H113.277L112.7 44.66H115.584L115.007 48.455H112.008L111.201 52.825H114.777L113.969 56.85H105.779L109.355 36.84Z" fill="white"/>
<path d="M127.927 42.82H123.543L123.774 41.325C123.89 40.635 124.005 40.175 123.89 39.945C123.774 39.715 123.659 39.715 123.313 39.715C123.082 39.715 122.736 39.83 122.621 40.06C122.39 40.29 122.275 40.635 122.159 41.21C122.044 41.9 122.044 42.36 122.159 42.705C122.275 43.05 122.621 43.395 123.313 43.97C125.158 45.35 126.312 46.5 126.658 47.305C127.004 48.11 127.119 49.605 126.773 51.56C126.543 52.94 126.197 54.09 125.851 54.78C125.389 55.47 124.697 56.045 123.774 56.505C122.851 56.965 121.698 57.195 120.544 57.195C119.275 57.195 118.237 56.965 117.43 56.39C116.622 55.815 116.161 55.125 116.046 54.32C115.815 53.515 115.93 52.365 116.276 50.87L116.507 49.49H120.89L120.429 52.02C120.314 52.71 120.198 53.285 120.314 53.4C120.429 53.63 120.544 53.745 120.89 53.745C121.236 53.745 121.467 53.515 121.698 53.285C121.929 53.055 122.044 52.595 122.159 52.02C122.39 50.87 122.39 50.065 122.159 49.72C121.929 49.375 121.236 48.8 120.198 47.88C119.16 46.96 118.468 46.385 118.122 46.04C117.776 45.695 117.545 45.12 117.43 44.43C117.314 43.74 117.314 42.82 117.545 41.785C117.776 40.29 118.122 39.14 118.699 38.45C119.16 37.76 119.852 37.185 120.775 36.725C121.698 36.265 122.621 36.15 123.774 36.15C125.043 36.15 125.966 36.38 126.773 36.725C127.581 37.185 128.042 37.645 128.158 38.45C128.388 39.14 128.273 40.175 127.927 41.785V42.82Z" fill="white"/>
<path d="M139.924 42.82H135.54L135.771 41.325C135.886 40.635 136.002 40.175 135.886 39.945C135.771 39.715 135.656 39.715 135.31 39.715C134.963 39.715 134.733 39.83 134.617 40.06C134.387 40.29 134.271 40.635 134.156 41.21C134.041 41.9 134.041 42.36 134.156 42.705C134.271 43.05 134.617 43.395 135.31 43.97C137.155 45.35 138.309 46.5 138.655 47.305C139.001 48.225 139.116 49.605 138.77 51.56C138.539 52.94 138.193 54.09 137.847 54.78C137.386 55.47 136.694 56.045 135.771 56.505C134.848 56.965 133.695 57.195 132.541 57.195C131.272 57.195 130.234 56.965 129.427 56.39C128.619 55.815 128.158 55.125 128.042 54.32C127.812 53.515 127.927 52.365 128.273 50.87L128.504 49.49H132.887L132.426 52.02C132.31 52.71 132.195 53.285 132.31 53.4C132.426 53.63 132.541 53.745 132.887 53.745C133.233 53.745 133.464 53.515 133.695 53.285C133.925 53.055 134.041 52.595 134.156 52.02C134.387 50.87 134.387 50.065 134.156 49.72C133.925 49.375 133.233 48.8 132.195 47.88C131.157 46.96 130.465 46.385 130.119 46.04C129.773 45.695 129.542 45.12 129.427 44.43C129.196 43.74 129.311 42.82 129.542 41.785C129.773 40.29 130.119 39.14 130.695 38.45C131.157 37.76 131.849 37.185 132.772 36.725C133.695 36.265 134.617 36.15 135.771 36.15C137.04 36.15 137.963 36.38 138.77 36.725C139.578 37.185 140.039 37.645 140.154 38.45C140.385 39.14 140.27 40.175 139.924 41.785V42.82Z" fill="white"/>
<path d="M53.2933 0.5L38.9894 16.945L38.8741 17.175H63.2136L66.0975 0.5H53.2933Z" fill="#F9BB0C"/>
<path d="M24.3396 28.79L49.0252 0.5H48.9098H10.2665L0.461426 57.195H39.1048L24.3396 28.79Z" fill="#F9BB0C"/>
<path d="M28.1462 29.0199L28.3769 29.4799L32.9911 37.8749H59.7531L62.6369 19.8199H35.8749L28.1462 29.0199Z" fill="#F9BB0C"/>
<path d="M34.8367 40.405L43.4882 57.195H56.2925L59.1763 40.405H34.8367Z" fill="#F9BB0C"/>
</g>
<defs>
<clipPath id="clip0_0_149">
<rect width="142" height="69" fill="white" transform="translate(0 0.5)"/>
</clipPath>
</defs>
</svg>
