<svg width="473" height="312" viewBox="0 0 473 312" fill="none" xmlns="http://www.w3.org/2000/svg">
<path d="M113.187 22.0934L214.087 35.7908C221.326 36.7735 228.035 40.1307 233.161 45.3361L275.055 87.8793M113.187 22.0934L97.8886 26.5812C92.1202 28.2734 86.9236 31.509 82.8598 35.9388L77.3598 41.9343M113.187 22.0934L100.764 -5.77986C98.4469 -10.9778 94.8253 -15.4882 90.2506 -18.8731L60.343 -41.0021C50.1548 -48.5405 45.184 -61.2476 47.5529 -73.6981L57.2993 -124.923C58.5875 -131.694 57.7234 -138.698 54.8283 -144.953L38.4204 -180.401M113.187 22.0934L109.714 56.2744C109.483 58.5432 109.488 60.8298 109.729 63.0975L113.201 95.7728C113.669 100.18 116.165 104.117 119.951 106.422L121.124 107.136C124.131 108.966 126.125 112.082 126.529 115.579V115.579C126.795 117.886 127.758 120.057 129.291 121.802L138.805 132.639M275.055 87.8793L292.93 106.869C296.663 110.835 301.32 113.815 306.485 115.544L329.877 123.374C337.016 125.764 343.123 130.522 347.185 136.859L409.428 233.96M275.055 87.8793L235.275 127.016C233.109 129.147 230.659 130.968 227.994 132.429L209.021 142.829C206.175 144.389 203.575 146.361 201.304 148.68L175.777 174.751M275.055 87.8793L302.918 58.1926L312.968 47.139C315.153 44.7363 316.971 42.0244 318.363 39.0909L377.436 -85.3531M-76.6147 138.151L26.8722 89.5442C30.2278 87.9682 33.2938 85.838 35.9414 83.2431L70.8534 49.0268L77.3598 41.9343M-76.6147 138.151L-128.141 143.342M-76.6147 138.151L-69.7039 139.466C-67.5278 139.88 -65.3155 140.074 -63.1006 140.045L121.75 137.607C127.234 137.534 132.614 136.096 137.402 133.422L138.805 132.639M-84.9365 -121.677L-35.6697 -108.985C-30.1383 -107.56 -25.0715 -104.723 -20.9649 -100.753L13.0188 -67.896C15.2575 -65.7315 17.1786 -63.2611 18.7249 -60.5582L77.3598 41.9343M103.55 317.936L184.21 228.087C195.283 215.752 195.386 197.086 184.45 184.629V184.629M138.805 132.639L175.777 174.751M175.777 174.751L184.45 184.629M184.45 184.629L179.807 189.844C173.937 196.437 163.69 196.617 157.593 190.234V190.234C154.494 186.99 150.113 185.291 145.637 185.596L120.629 187.303M-110.463 225.568L6.7782 218.262C12.0931 217.931 17.2489 216.319 21.8054 213.562L51.325 195.707C55.8251 192.985 60.9106 191.378 66.1578 191.02L120.629 187.303M120.629 187.303V187.303C122.323 194.423 119.733 201.88 113.99 206.418L110.215 209.4C107.701 211.387 105.57 213.816 103.927 216.567L82.977 251.649C78.1796 259.683 77.0182 269.376 79.7818 278.315L81.2474 283.056C83.2835 289.642 83.2058 296.701 81.0253 303.241L75.3239 320.34" stroke="white" stroke-width="6" stroke-linecap="round" stroke-linejoin="round"/>
<path d="M110.799 75.5096L109.266 66.0543L91.7325 7.42842C90.9786 4.90757 89.9259 2.48594 88.5968 0.215101L86.011 -4.20308C82.4562 -10.2768 80.9361 -17.3279 81.6729 -24.3267L81.9548 -27.005C83.5461 -42.1223 95.2579 -54.1969 110.32 -56.2485L136.548 -59.8212M110.799 75.5096L118.648 76.5834M110.799 75.5096L104.032 75.9892C96.1063 76.5509 88.7245 80.2229 83.4954 86.2047V86.2047M162.762 82.6194L163.991 66.5229C164.515 59.6645 167.788 53.3085 173.065 48.8975V48.8975M162.762 82.6194L177.319 98.0571M162.762 82.6194L150.312 80.916M216.368 139.469L196.728 118.641M184.376 8.42517L184.775 9.28359C187.462 15.0638 188.267 21.5419 187.075 27.804V27.804C186.566 30.4828 185.698 33.0809 184.497 35.5286L184.368 35.7898C182.359 39.8835 179.512 43.5099 176.013 46.4344L173.065 48.8975M184.376 8.42517L189.118 -16.4971M184.376 8.42517L172.225 3.02478C169.415 1.77589 166.445 0.925854 163.399 0.499355L129.277 -4.27961M173.065 48.8975L123.075 43.0999M173.065 48.8975L188.741 54.3929C193.666 56.1194 198.111 58.9892 201.712 62.7667L208.502 69.891M111.392 41.7451L123.075 43.0999M123.075 43.0999L129.277 -4.27961M123.075 43.0999L118.648 76.5834M136.548 -59.8212L129.992 -108.552M136.548 -59.8212L129.277 -4.27961M129.277 -4.27961L101.033 -7.43195M118.648 76.5834L150.312 80.916M284.398 222.667L285.396 217.424C285.885 214.854 286.066 212.235 285.937 209.623L283.812 166.745C283.601 162.488 282.534 158.317 280.675 154.482V154.482M284.398 222.667L283.109 229.441C282.577 232.238 282.409 235.092 282.61 237.932L284.035 258.141M284.398 222.667L269.772 218.396C265.378 217.113 260.637 218.501 257.629 221.952V221.952C253.05 227.203 244.933 227.337 240.184 222.24L215.63 195.887M284.398 222.667L327.669 221.459M154.497 165.462L157.392 160.386C158.79 157.936 160.496 155.674 162.469 153.657L190.646 124.857M154.497 165.462L136.752 168.137C130.785 169.037 124.685 168.258 119.134 165.89V165.89C113.926 163.667 108.229 162.842 102.605 163.497L82.6974 165.813C79.3711 166.2 76.0052 166.078 72.7154 165.453L62.4039 163.491M154.497 165.462L174.442 184.804M196.728 118.641L228.178 90.5338M196.728 118.641L177.319 98.0571M196.728 118.641L190.646 124.857M228.178 90.5338L275.428 46.5755M228.178 90.5338L208.502 69.891M228.178 90.5338L256.186 119.92M295.996 27.4411L308.357 9.69651C309.79 7.63902 310.984 5.42487 311.915 3.09695L314.748 -3.97914M295.996 27.4411L275.428 46.5755M295.996 27.4411L314.63 46.2591M295.996 27.4411L275.948 5.83656M314.748 -3.97914L326.214 -30.6765L336.304 -50.1384M314.748 -3.97914L331.609 -4.24895C336.463 -4.32663 341.275 -3.33234 345.7 -1.33698L358.161 4.28083M314.748 -3.97914L294.459 -1.9289C289.007 -1.37793 283.778 0.522136 279.244 3.59979L275.948 5.83656M301.022 -41.3009L293.403 -30.2374C291.838 -27.9652 289.995 -25.8982 287.916 -24.0848L265.956 -4.93208M219.141 35.866L245.034 13.3019M245.034 13.3019L263.081 -2.42458L265.956 -4.93208M245.034 13.3019L255.655 24.9287M275.428 46.5755L295.468 68.1601L298.058 70.8951C301.625 74.6612 300.349 80.8279 295.581 82.8696V82.8696C294.661 83.2635 293.83 83.8386 293.137 84.5607L283.147 94.9725L256.186 119.92M275.428 46.5755L255.655 24.9287M265.956 -4.93208L275.948 5.83656M275.948 5.83656L255.655 24.9287M255.655 24.9287L208.502 69.891M208.502 69.891L177.319 98.0571M177.319 98.0571V98.0571C175.967 105.16 178.224 112.471 183.344 117.576L190.646 124.857M190.646 124.857L206.251 141.344C207.782 142.961 208.806 144.99 209.199 147.182V147.182C209.911 151.158 208.47 155.214 205.41 157.849L191.417 169.902M191.417 169.902L180.245 179.525L174.442 184.804M191.417 169.902L196.49 175.346M199.742 209.337L215.63 195.887M199.742 209.337L237.867 252.689M199.742 209.337L174.442 184.804M215.63 195.887L196.49 175.346M224.634 187.971L247.65 180.646C253.658 178.734 258.994 175.14 263.024 170.29L266.216 166.448M266.216 166.448L269.786 161.768C272.508 158.199 276.338 155.637 280.675 154.482V154.482M266.216 166.448L234.884 145.769M280.675 154.482L274.176 141.074C272.685 137.999 270.726 135.174 268.368 132.701L258.732 122.591M234.884 145.769L258.732 122.591M234.884 145.769L206.692 172.808M258.732 122.591L256.186 119.92M196.49 175.346L256.186 119.92M-12.4226 152.497L18.2291 156.315M62.4039 163.491L36.9456 158.647L18.2291 156.315M62.4039 163.491L61.4532 144.18C61.2516 140.084 61.8152 135.987 63.115 132.097L65.1619 125.973M62.4039 163.491L63.3667 191.997L63.9246 205.849M129.006 122.847L113.166 126.221C110.424 126.805 107.619 127.037 104.818 126.912L82.3282 125.907M82.3282 125.907L65.1619 125.973M82.3282 125.907L83.5353 100.59M65.1619 125.973L20.1718 127.132M65.1619 125.973L73.015 102.476M20.1718 127.132L-5.20039 128.213C-9.70095 128.405 -14.1931 127.673 -18.4002 126.063L-61.5975 109.531C-66.9363 107.488 -72.7142 106.867 -78.3653 107.729L-89.1896 109.379M20.1718 127.132L22.0049 105.266M20.1718 127.132L20.3108 141.946C20.3311 144.119 20.1368 146.289 19.7306 148.423L18.2291 156.315M73.015 102.476L73.2342 101.82C74.6188 97.6767 76.8122 93.8499 79.6872 90.5611L83.4954 86.2047M73.015 102.476L83.5353 100.59M73.015 102.476L22.0049 105.266M83.5353 100.59L83.4954 86.2047M83.4954 86.2047L47.7032 88.5175C43.1261 88.8132 38.661 90.0599 34.5927 92.1778L22.5777 98.4327M22.5777 98.4327L22.0049 105.266M22.5777 98.4327V98.4327C20.096 91.9435 15.0093 86.7907 8.55271 84.2254L-36.0476 66.5047M22.0049 105.266L18.8855 104.672C16.7507 104.266 14.6612 103.65 12.6475 102.833L-16.5476 90.9886M18.2291 156.315L17.045 174.327C16.6681 180.059 17.7941 185.791 20.3116 190.954L29.4528 209.703M64.4825 219.7L63.9246 205.849M54.1949 206.636L63.9246 205.849M63.9246 205.849L114.018 202.592C116.496 202.431 118.922 201.809 121.172 200.759L123.199 199.813C127.991 197.577 133.585 197.885 138.103 200.635V200.635C143.398 203.858 150.089 203.689 155.214 200.202L164.341 193.993L174.442 184.804M138.118 130.413L139.289 128.946C143.054 124.228 145.454 118.569 146.226 112.582L150.312 80.916" stroke="white" stroke-width="3" stroke-linecap="round" stroke-linejoin="round"/>
<path d="M37.5 204.5L55.8514 193.577C57.593 192.54 59.5528 191.925 61.5745 191.78L145.233 185.805C148.004 185.607 150.767 186.302 153.114 187.789L160.946 192.749C163.227 194.194 165.977 194.705 168.625 194.175L172.595 193.381C178.189 192.262 180.775 185.752 177.473 181.099V181.099C175.196 177.89 175.636 173.493 178.504 170.799L197.447 153.004C202.512 148.246 202.939 140.346 198.416 135.069L178.79 112.171C174.184 106.798 174.722 98.7289 180 94.015L236 44" stroke="#F9BB0C" stroke-width="4"/>
<circle cx="38.5" cy="204" r="6" fill="#F9BB0C"/>
<circle cx="38.5" cy="204" r="2" fill="white"/>
<circle cx="235.5" cy="44" r="6" fill="#F9BB0C"/>
<circle cx="235.5" cy="44" r="2" fill="white"/>
<circle cx="119.5" cy="187" r="19" transform="rotate(23.4629 119.5 187)" fill="#F9BB0C"/>
<path d="M127.17 186.046L113.673 181.469C112.766 181.161 111.987 182.183 112.524 182.977L114.804 186.346C115.025 186.674 115.033 187.102 114.823 187.437L112.329 191.419C111.824 192.225 112.623 193.214 113.517 192.89L127.189 187.934C128.078 187.611 128.065 186.35 127.17 186.046Z" fill="white"/>
<ellipse cx="164.5" cy="98.5" rx="294" ry="304.5" fill="url(#paint0_radial_0_301)"/>
<defs>
<radialGradient id="paint0_radial_0_301" cx="0" cy="0" r="1" gradientUnits="userSpaceOnUse" gradientTransform="translate(132.172 107.344) rotate(3.74101) scale(242.059 195.673)">
<stop stop-color="#F8F8F9" stop-opacity="0"/>
<stop offset="1" stop-color="#F8F8F9" stop-opacity="0.79"/>
</radialGradient>
</defs>
</svg>
